<svg width="77" height="123" viewBox="0 0 77 123" fill="none" xmlns="http://www.w3.org/2000/svg">
<path d="M75.6579 76.5893C64.7163 69.572 52.0469 65.7173 39.0514 65.4515V39.301H40.7681H40.7669C49.9281 39.2901 58.7104 35.6474 65.1888 29.169C71.6659 22.6919 75.3099 13.9083 75.3198 4.7484V1.51585C75.3198 0.67851 74.6413 0 73.804 0H70.5714H70.5726C62.2522 0.0108273 54.2149 3.01845 47.9312 8.47314C41.649 13.9278 37.5418 21.4637 36.3616 29.6997C34.3621 25.6997 31.2895 22.3347 27.4868 19.9814C23.6842 17.6282 19.3026 16.3796 14.8307 16.3747H12.6231C11.7858 16.3747 11.1073 17.0532 11.1073 17.8905V20.0981C11.1145 26.4804 13.6529 32.6003 18.1668 37.114C22.6805 41.6265 28.7992 44.1661 35.1827 44.1735H36.02V65.4506C23.5517 65.7069 11.3755 69.2656 0.731673 75.763C0.0158659 76.1949 -0.213918 77.1273 0.217962 77.8443C0.651044 78.5601 1.58342 78.7899 2.29923 78.358C12.4145 72.1793 23.9795 68.7734 35.829 68.4857L25.6777 84.1856C25.3769 84.6464 25.0533 85.0903 24.7068 85.5161C24.6214 85.5883 24.5444 85.6701 24.477 85.7604L24.3074 85.9901C21.3816 89.337 17.1493 91.2548 12.7027 91.2474H6.33864C5.50254 91.2474 4.82279 91.9259 4.82279 92.7632C4.82279 93.5993 5.5025 94.2791 6.33864 94.2791H12.7027C14.8526 94.2778 16.9855 93.9025 19.0068 93.1698L11.5792 103.23C11.3362 103.552 11.2327 103.959 11.2905 104.359C11.3494 104.759 11.5648 105.12 11.8908 105.359C12.2156 105.6 12.6235 105.7 13.0229 105.638C13.4223 105.576 13.7808 105.357 14.0178 105.029L26.6678 87.8968V87.898C27.2332 87.246 27.7529 86.5554 28.2233 85.8312L36.0189 73.7753V100.218C36.0189 108.405 30.8519 115.985 22.5352 120.001L22.3079 120.11H22.3067C21.9397 120.282 21.6558 120.593 21.5199 120.975C21.3839 121.357 21.4068 121.778 21.5824 122.142C21.7593 122.508 22.0745 122.787 22.457 122.918C22.8408 123.049 23.2607 123.022 23.624 122.841L23.8526 122.732C30.4141 119.564 35.2309 114.386 37.5349 108.355C39.8375 114.386 44.6557 119.563 51.2172 122.732L51.4446 122.841C52.1989 123.205 53.1048 122.888 53.4681 122.134C53.8326 121.381 53.5162 120.474 52.7619 120.11L52.5345 120.001C44.2166 115.985 39.0496 108.405 39.0496 100.218V73.9604L46.7251 85.8309C47.1149 86.4312 47.5383 87.0075 47.9943 87.5585L47.9955 87.5597L60.8946 105.029H60.8934C61.1316 105.356 61.4889 105.575 61.8896 105.638C62.289 105.699 62.6956 105.599 63.0216 105.359C63.3465 105.118 63.563 104.759 63.6208 104.359C63.6797 103.959 63.575 103.552 63.3332 103.228L55.8924 93.1503V93.1515C57.928 93.8962 60.0791 94.2775 62.2457 94.2775H68.6098C69.4472 94.2775 70.1257 93.599 70.1257 92.7616C70.1257 91.9243 69.4472 91.2458 68.6098 91.2458H62.247C57.0005 91.2566 52.1114 88.5955 49.2721 84.185L39.1195 68.4842V68.483C51.5108 68.7609 63.5858 72.4483 74.0198 79.1397C74.3579 79.3623 74.7717 79.4405 75.1675 79.3563C75.5633 79.2721 75.9086 79.0327 76.1276 78.6922C76.3465 78.3518 76.4199 77.9379 76.3321 77.5433C76.2431 77.1475 76.0013 76.8047 75.6584 76.5893L75.6579 76.5893ZM70.5725 3.03141H72.2893V4.74816H72.288C72.2784 13.03 69.0133 20.9759 63.1977 26.871C57.3809 32.7672 49.4806 36.1405 41.1999 36.2631L56.7409 20.7221C57.3316 20.1302 57.3316 19.1714 56.7397 18.5795C56.149 17.9876 55.1902 17.9876 54.5983 18.5783L39.0561 34.1193C39.1788 25.8386 42.5523 17.9383 48.4482 12.1228C54.3445 6.30595 62.2904 3.04105 70.5723 3.0312L70.5725 3.03141ZM35.8724 41.1408H35.1807H35.1819C29.6022 41.1336 24.2535 38.9152 20.3086 34.9705C16.3637 31.0246 14.1441 25.6756 14.1382 20.0972V19.4066H14.83V19.4054C20.4084 19.4127 25.7571 21.6311 29.702 25.5758C33.6469 29.5207 35.8665 34.8694 35.8724 40.4491L35.8724 41.1408Z" fill="#4B2418"/>
</svg>
