<svg width="27" height="30" viewBox="0 0 27 30" fill="none" xmlns="http://www.w3.org/2000/svg">
<path d="M13.5 18C13.075 18 12.7188 17.8562 12.4313 17.5687C12.1438 17.2812 12 16.925 12 16.5C12 16.075 12.1438 15.7188 12.4313 15.4313C12.7188 15.1438 13.075 15 13.5 15C13.925 15 14.2812 15.1438 14.5687 15.4313C14.8562 15.7188 15 16.075 15 16.5C15 16.925 14.8562 17.2812 14.5687 17.5687C14.2812 17.8562 13.925 18 13.5 18ZM7.5 18C7.075 18 6.71875 17.8562 6.43125 17.5687C6.14375 17.2812 6 16.925 6 16.5C6 16.075 6.14375 15.7188 6.43125 15.4313C6.71875 15.1438 7.075 15 7.5 15C7.925 15 8.28125 15.1438 8.56875 15.4313C8.85625 15.7188 9 16.075 9 16.5C9 16.925 8.85625 17.2812 8.56875 17.5687C8.28125 17.8562 7.925 18 7.5 18ZM19.5 18C19.075 18 18.7188 17.8562 18.4313 17.5687C18.1438 17.2812 18 16.925 18 16.5C18 16.075 18.1438 15.7188 18.4313 15.4313C18.7188 15.1438 19.075 15 19.5 15C19.925 15 20.2812 15.1438 20.5687 15.4313C20.8562 15.7188 21 16.075 21 16.5C21 16.925 20.8562 17.2812 20.5687 17.5687C20.2812 17.8562 19.925 18 19.5 18ZM13.5 24C13.075 24 12.7188 23.8562 12.4313 23.5687C12.1438 23.2812 12 22.925 12 22.5C12 22.075 12.1438 21.7188 12.4313 21.4313C12.7188 21.1438 13.075 21 13.5 21C13.925 21 14.2812 21.1438 14.5687 21.4313C14.8562 21.7188 15 22.075 15 22.5C15 22.925 14.8562 23.2812 14.5687 23.5687C14.2812 23.8562 13.925 24 13.5 24ZM7.5 24C7.075 24 6.71875 23.8562 6.43125 23.5687C6.14375 23.2812 6 22.925 6 22.5C6 22.075 6.14375 21.7188 6.43125 21.4313C6.71875 21.1438 7.075 21 7.5 21C7.925 21 8.28125 21.1438 8.56875 21.4313C8.85625 21.7188 9 22.075 9 22.5C9 22.925 8.85625 23.2812 8.56875 23.5687C8.28125 23.8562 7.925 24 7.5 24ZM19.5 24C19.075 24 18.7188 23.8562 18.4313 23.5687C18.1438 23.2812 18 22.925 18 22.5C18 22.075 18.1438 21.7188 18.4313 21.4313C18.7188 21.1438 19.075 21 19.5 21C19.925 21 20.2812 21.1438 20.5687 21.4313C20.8562 21.7188 21 22.075 21 22.5C21 22.925 20.8562 23.2812 20.5687 23.5687C20.2812 23.8562 19.925 24 19.5 24ZM2.25 30C1.65 30 1.125 29.775 0.675 29.325C0.225 28.875 0 28.35 0 27.75V4.5C0 3.9 0.225 3.375 0.675 2.925C1.125 2.475 1.65 2.25 2.25 2.25H4.6875V0H7.125V2.25H19.875V0H22.3125V2.25H24.75C25.35 2.25 25.875 2.475 26.325 2.925C26.775 3.375 27 3.9 27 4.5V27.75C27 28.35 26.775 28.875 26.325 29.325C25.875 29.775 25.35 30 24.75 30H2.25ZM2.25 27.75H24.75V11.625H2.25V27.75ZM2.25 9.375H24.75V4.5H2.25V9.375ZM2.25 9.375V4.5V9.375Z" fill="#4B2418"/>
</svg>
