<svg width="105" height="96" viewBox="0 0 105 96" fill="none" xmlns="http://www.w3.org/2000/svg">
<path d="M17.4877 0C14.2991 0 11.6585 2.64065 11.6585 5.82924V9.327H4.66298C2.11997 9.327 0 11.4472 0 13.99V90.936C0 93.479 2.12018 95.599 4.66298 95.599H100.263C102.806 95.599 104.926 93.4788 104.926 90.936V13.99C104.926 11.447 102.805 9.327 100.263 9.327H93.2671V5.82924C93.2671 2.64065 90.6264 0 87.4378 0C84.2492 0 81.6086 2.64065 81.6086 5.82924V9.327H69.9501V5.82924C69.9501 2.64065 67.3094 0 64.1208 0C60.9323 0 58.2916 2.64065 58.2916 5.82924V9.327H46.6331V5.82924C46.6331 2.64065 43.9925 0 40.8039 0C37.6153 0 34.9746 2.64065 34.9746 5.82924V9.327H23.3161V5.82924C23.3161 2.64065 20.6755 0 17.4869 0H17.4877ZM17.4877 4.66298C18.1741 4.66298 18.6539 5.14279 18.6539 5.82916V17.4876C18.6539 18.174 18.1741 18.6538 17.4877 18.6538C16.8014 18.6538 16.3216 18.174 16.3216 17.4876V5.82916C16.3216 5.14279 16.8014 4.66298 17.4877 4.66298ZM40.8047 4.66298C41.4911 4.66298 41.9709 5.14279 41.9709 5.82916V17.4876C41.9709 18.174 41.4911 18.6538 40.8047 18.6538C40.1183 18.6538 39.6385 18.174 39.6385 17.4876V5.82916C39.6385 5.14279 40.1183 4.66298 40.8047 4.66298ZM64.1217 4.66298C64.8081 4.66298 65.2879 5.14279 65.2879 5.82916V17.4876C65.2879 18.174 64.8081 18.6538 64.1217 18.6538C63.4353 18.6538 62.9555 18.174 62.9555 17.4876V5.82916C62.9555 5.14279 63.4353 4.66298 64.1217 4.66298ZM87.4387 4.66298C88.125 4.66298 88.6048 5.14279 88.6048 5.82916V17.4876C88.6048 18.174 88.125 18.6538 87.4387 18.6538C86.7523 18.6538 86.2725 18.174 86.2725 17.4876V5.82916C86.2725 5.14279 86.7523 4.66298 87.4387 4.66298ZM4.66339 13.99H11.6589V17.4877C11.6589 20.6763 14.2996 23.317 17.4881 23.317C20.6767 23.317 23.3174 20.6763 23.3174 17.4877V13.99H34.9759V17.4877C34.9759 20.6763 37.6165 23.317 40.8051 23.317C43.9937 23.317 46.6344 20.6763 46.6344 17.4877V13.99H58.2929V17.4877C58.2929 20.6763 60.9335 23.317 64.1221 23.317C67.3107 23.317 69.9513 20.6763 69.9513 17.4877V13.99H81.6098V17.4877C81.6098 20.6763 84.2505 23.317 87.4391 23.317C90.6277 23.317 93.2683 20.6763 93.2683 17.4877V13.99H100.264V27.98H4.66423V13.99H4.66339ZM4.66339 32.644H100.263V90.9364H4.66339V32.644ZM52.2446 40.8047C40.8301 40.8047 31.4779 49.8796 31.4779 60.6972C31.46 61.9284 32.5782 62.9556 33.8094 62.9565C35.0415 62.9565 36.1588 61.9293 36.1409 60.6972C36.1409 52.5894 43.3088 45.4687 52.2446 45.4687C57.7397 45.4687 62.6296 48.228 65.5426 52.4642H64.1218C62.8345 52.4642 61.7904 53.5084 61.7904 54.7957C61.7904 56.0831 62.8345 57.1272 64.1218 57.1272H71.1174C72.4055 57.1272 73.4488 56.083 73.4488 54.7957V47.8002C73.4488 46.5129 72.4047 45.4687 71.1174 45.4687C69.8292 45.4687 68.7859 46.5129 68.7859 47.8002V49.0022C64.9719 44.0057 58.9546 40.8048 52.2456 40.8048L52.2446 40.8047ZM71.1172 60.6239C69.8851 60.6239 68.7678 61.6502 68.7857 62.8832C68.7857 70.991 61.6178 78.1117 52.682 78.1117C47.1869 78.1117 42.297 75.3515 39.384 71.1161H40.8047C42.0929 71.1161 43.1362 70.0728 43.1362 68.7847C43.1362 67.4973 42.0921 66.4532 40.8047 66.4532H33.8092C32.5211 66.4532 31.4777 67.4965 31.4777 68.7847V75.7802C31.4777 77.0683 32.5219 78.1125 33.8092 78.1117C35.0966 78.1117 36.1407 77.0675 36.1407 75.7802V74.5782C39.9547 79.5755 45.9711 82.7756 52.681 82.7756C64.0947 82.7756 73.4477 73.7007 73.4477 62.8831C73.4656 61.651 72.3482 60.6247 71.1162 60.6238L71.1172 60.6239Z" fill="#4B2418"/>
</svg>
