<svg width="28" height="22" viewBox="0 0 28 22" fill="none" xmlns="http://www.w3.org/2000/svg">
<path d="M2.1 22C1.54 22 1.05 21.7937 0.63 21.3812C0.21 20.9687 0 20.4875 0 19.9375V2.0625C0 1.5125 0.21 1.03125 0.63 0.61875C1.05 0.20625 1.54 0 2.1 0H20.3C20.86 0 21.35 0.20625 21.77 0.61875C22.19 1.03125 22.4 1.5125 22.4 2.0625V9.45312L28 3.95312V18.0469L22.4 12.5469V19.9375C22.4 20.4875 22.19 20.9687 21.77 21.3812C21.35 21.7937 20.86 22 20.3 22H2.1ZM2.1 19.9375H20.3V2.0625H2.1V19.9375ZM2.1 19.9375V2.0625V19.9375Z" fill="#4B2418"/>
</svg>
