<svg width="30" height="19" viewBox="0 0 30 19" fill="none" xmlns="http://www.w3.org/2000/svg">
<path d="M25.9296 4.42041C25.6281 4.36871 25.2764 4.34286 24.8744 4.34286C23.3668 4.34286 22.2362 4.62721 21.4824 5.19592C20.7286 5.71293 20.3518 6.64354 20.3518 7.98775L20.4271 8.06531C21.2814 7.5483 22.5126 7.2898 24.1206 7.2898C28.0402 7.2898 30 9.20272 30 13.0286C30 14.9415 29.4975 16.415 28.4925 17.449C27.4874 18.483 25.7035 19 23.1407 19C20.5276 19 18.6432 18.2245 17.4874 16.6735C16.3317 15.1224 15.7538 12.8993 15.7538 10.0041C15.7538 6.17823 16.5075 3.56735 18.0151 2.17143C19.5226 0.723809 21.6583 0 24.4221 0C24.6734 0 24.9246 0.02585 25.1759 0.07755C25.4271 0.07755 25.7035 0.103402 26.005 0.155105V4.34286L25.9296 4.42041ZM10.1759 4.42041C9.97487 4.36871 9.799 4.34286 9.64824 4.34286C9.49749 4.34286 9.34673 4.34286 9.19598 4.34286C7.63819 4.34286 6.48241 4.62721 5.72864 5.19592C4.97487 5.71293 4.59799 6.64354 4.59799 7.98775L4.67337 8.06531C5.07538 7.8068 5.57789 7.62585 6.1809 7.52245C6.83417 7.36735 7.56281 7.2898 8.36683 7.2898C12.2864 7.2898 14.2462 9.20272 14.2462 13.0286C14.2462 14.9415 13.7437 16.415 12.7387 17.449C11.7839 18.483 10 19 7.38693 19C4.77387 19 2.88945 18.2245 1.73367 16.6735C0.577889 15.1224 0 12.8993 0 10.0041C0 6.17823 0.753769 3.56735 2.26131 2.17143C3.76884 0.723809 5.90452 0 8.66834 0C8.96985 0 9.22111 0.02585 9.42211 0.07755C9.67337 0.07755 9.94975 0.103402 10.2513 0.155105V4.34286L10.1759 4.42041Z" fill="#4B2418"/>
</svg>
