<svg width="114" height="90" viewBox="0 0 114 90" fill="none" xmlns="http://www.w3.org/2000/svg">
<path d="M19.1784 0.000854463C18.9127 0.000854463 18.6444 0.0044007 18.377 0.0106061H18.3779C17.3436 0.0380873 16.5191 0.880273 16.5165 1.91218V8.58945C14.56 8.42722 12.5858 8.30665 10.5705 8.27916C10.0596 8.27207 9.56651 8.46976 9.20224 8.82792C8.83795 9.18607 8.63271 9.67544 8.63271 10.1852V19.3049H1.91115V19.3058C0.855621 19.3058 0.000887079 20.1586 0 21.2118V88.0933C0.000888444 89.1465 0.855621 89.9993 1.91115 89.9993H56.9806C57.0037 90.0002 57.0268 90.0002 57.0499 89.9993H112.09C113.145 89.9993 114 89.1465 114 88.0933V21.2118C114 20.1595 113.145 19.3058 112.09 19.3058H105.366V10.1852C105.366 9.64439 105.136 9.12933 104.733 8.76762C104.331 8.40591 103.792 8.23216 103.254 8.2889C101.311 8.49457 99.3977 8.69936 97.482 8.90681V1.91227C97.4811 1.39545 97.2697 0.901651 96.8974 0.543504C96.5242 0.185358 96.0213 -0.00702501 95.5042 0.0106996C80.2041 0.491194 64.4837 11.374 57.0437 18.8129C50.1435 11.3148 35.9239 -0.0219819 19.1813 3.20122e-05L19.1784 0.000854463ZM20.3423 4.36688C35.1447 4.97858 49.1178 15.3419 55.0908 21.9358V84.5848C45.4551 78.3419 37.4088 72.7686 20.3423 70.022V4.36688ZM93.6537 4.46883V69.705C86.7368 69.7166 79.5346 71.3132 73.1943 73.8255C72.4186 74.1243 71.6572 74.4381 70.9109 74.7714C70.3013 75.0436 69.7149 75.3273 69.1392 75.6154C65.0104 77.6234 61.476 79.9469 58.9046 82.5205V21.9867C65.1162 15.6836 80.3637 5.80415 93.653 4.46901L93.6537 4.46883ZM12.4496 12.2107C13.8152 12.263 15.172 12.3401 16.5118 12.4563V71.5513H16.5126V71.5539C16.5206 71.9892 16.6779 72.4094 16.9578 72.7427C16.9827 72.7729 17.0084 72.8021 17.0351 72.8296C17.322 73.1443 17.7068 73.3544 18.127 73.4254C18.1359 73.4298 18.1439 73.4342 18.1519 73.4387C29.419 75.0495 36.2827 77.8492 42.3965 81.2745C32.5181 79.2843 22.5252 79.216 12.4496 78.0795L12.4496 12.2107ZM101.535 12.3073V77.9702C99.7012 77.9631 97.9004 77.9986 96.1189 78.0642C95.0607 78.1014 94.0238 78.1732 92.9816 78.2353C92.3641 78.2743 91.7386 78.3018 91.1255 78.3496C81.4595 79.0739 72.395 80.8967 63.1461 83.9224C65.5861 81.9259 68.7454 79.9172 72.463 78.2575C74.2035 77.4809 76.0393 76.7699 77.9335 76.1476H77.9362C78.8291 75.8541 79.7363 75.5838 80.6507 75.3311C80.7626 75.301 80.8745 75.269 80.9865 75.2389C81.8013 75.019 82.624 74.8196 83.4494 74.6361C83.6227 74.5971 83.7959 74.559 83.9692 74.5217C84.8079 74.3435 85.6476 74.1848 86.4889 74.0474C86.6364 74.0235 86.7839 74.0005 86.9314 73.9783C87.7426 73.8533 88.552 73.7496 89.3597 73.6654C89.5748 73.6432 89.7898 73.6219 90.0039 73.6033C90.7787 73.5333 91.5499 73.4827 92.3149 73.4544C92.5041 73.4473 92.6934 73.4437 92.8817 73.4393C93.668 73.4216 94.4464 73.4242 95.215 73.4544C95.3029 73.4579 95.3909 73.4606 95.4789 73.4641L95.4815 73.465C96.0031 73.4872 96.5113 73.2957 96.888 72.9349C97.2639 72.5741 97.4762 72.075 97.4744 71.5537V12.7424C98.8178 12.5961 100.175 12.4516 101.537 12.308L101.535 12.3073ZM28.8174 20.6123H28.8182C27.8613 20.5626 27.0164 21.2266 26.8404 22.1663C26.6476 23.1956 27.3229 24.1876 28.3527 24.388C34.3047 25.5103 38.8618 27.3914 44.7518 32.7381H44.7527C45.5293 33.4446 46.7314 33.3923 47.444 32.6219C47.7869 32.2469 47.9664 31.7514 47.9424 31.2443C47.9175 30.7372 47.6918 30.2612 47.3142 29.9207C41.0069 24.1948 35.4731 21.8507 29.0661 20.6424H29.067C28.9844 20.6273 28.9017 20.6176 28.8182 20.6132L28.8174 20.6123ZM84.1415 20.6123H84.1424C84.0589 20.6167 83.9754 20.6265 83.8936 20.6424C77.4866 21.8507 71.9531 24.1955 65.6455 29.9207C65.2679 30.2603 65.0413 30.7363 65.0164 31.2434C64.9916 31.7505 65.1702 32.2461 65.5131 32.6211C66.2257 33.3923 67.4287 33.4437 68.2053 32.7381C74.0953 27.3914 78.6533 25.5102 84.6044 24.388V24.3871C85.636 24.1876 86.313 23.1956 86.1202 22.1655C85.9443 21.2267 85.0984 20.5618 84.1424 20.6114L84.1415 20.6123ZM3.81765 23.1166H8.6288V79.8242C8.6288 80.7851 9.34581 81.5954 10.301 81.7151C12.2903 81.966 14.253 82.1637 16.2041 82.3427C16.4671 82.3667 16.7257 82.3862 16.9878 82.4092C27.2704 83.3232 37.051 83.6078 46.4547 86.185H3.8158L3.81765 23.1166ZM105.361 23.1166H110.175V86.1855H68.6117C75.5225 84.1838 82.3542 82.8734 89.5438 82.2139C89.734 82.1971 89.925 82.1802 90.116 82.1643C92.8046 81.9311 95.5484 81.7902 98.3631 81.737C98.6315 81.7317 98.8998 81.7281 99.169 81.7246C100.567 81.7068 101.978 81.7042 103.416 81.7299C103.929 81.7387 104.424 81.5419 104.79 81.1838C105.155 80.8248 105.361 80.3354 105.361 79.823L105.361 23.1166ZM28.8219 34.5952C27.8659 34.5447 27.02 35.2096 26.8441 36.1484C26.6513 37.1777 27.3266 38.1696 28.3572 38.37C34.3093 39.4923 38.8664 41.3734 44.7564 46.7201V46.721C45.5373 47.4231 46.7395 47.3646 47.4476 46.5889C48.1531 45.8105 48.0953 44.6111 47.3188 43.9037C41.0114 38.1778 35.4776 35.8336 29.0707 34.6253C28.9889 34.6094 28.9054 34.5996 28.8219 34.5952ZM84.1461 34.5943V34.5952C84.0626 34.5996 83.979 34.6094 83.8973 34.6245C77.4903 35.8328 71.9567 38.1776 65.6492 43.9028C64.8726 44.6093 64.8131 45.8097 65.5177 46.5889C66.2258 47.3638 67.4288 47.4223 68.2089 46.7201C74.0989 41.3735 78.6569 39.4923 84.6081 38.37H84.6089C85.6396 38.1706 86.3166 37.1786 86.1238 36.1484C85.9479 35.2087 85.1021 34.5447 84.1461 34.5943ZM28.8219 48.5772C27.8659 48.5276 27.02 49.1916 26.8441 50.1313C26.6513 51.1606 27.3266 52.1526 28.3572 52.3521C34.3093 53.4744 38.8664 55.353 44.7564 60.6994V60.7003C45.5365 61.4033 46.7395 61.3457 47.4476 60.5709C48.1531 59.7925 48.0953 58.5922 47.3188 57.8847C41.0114 52.1588 35.4776 49.8147 29.0707 48.6064C28.9889 48.5913 28.9054 48.5817 28.8219 48.5772ZM84.1461 48.5772C84.0626 48.5817 83.979 48.5914 83.8973 48.6065C77.4903 49.8148 71.9567 52.1596 65.6492 57.8848C64.8726 58.5914 64.8131 59.7917 65.5177 60.571C66.2267 61.3458 67.4288 61.4034 68.2089 60.7004C74.0989 55.3537 78.6569 53.4753 84.6081 52.353L84.6089 52.3521C85.6396 52.1536 86.3166 51.1607 86.1238 50.1305C85.9479 49.1917 85.1021 48.5276 84.1461 48.5772Z" fill="#4B2418"/>
</svg>
